<svg width="87" height="87" viewBox="0 0 87 87" fill="none" xmlns="http://www.w3.org/2000/svg">
<path fill-rule="evenodd" clip-rule="evenodd" d="M5.4375 43.5C5.4375 53.5948 9.44764 63.2761 16.5857 70.4143C23.7239 77.5524 33.4052 81.5625 43.5 81.5625C53.5948 81.5625 63.2761 77.5524 70.4143 70.4143C77.5524 63.2761 81.5625 53.5948 81.5625 43.5C81.5625 33.4052 77.5524 23.7239 70.4143 16.5857C63.2761 9.44764 53.5948 5.4375 43.5 5.4375C33.4052 5.4375 23.7239 9.44764 16.5857 16.5857C9.44764 23.7239 5.4375 33.4052 5.4375 43.5ZM87 43.5C87 55.0369 82.417 66.1013 74.2591 74.2591C66.1013 82.417 55.0369 87 43.5 87C31.9631 87 20.8987 82.417 12.7409 74.2591C4.58302 66.1013 0 55.0369 0 43.5C0 31.9631 4.58302 20.8987 12.7409 12.7409C20.8987 4.58302 31.9631 0 43.5 0C55.0369 0 66.1013 4.58302 74.2591 12.7409C82.417 20.8987 87 31.9631 87 43.5ZM46.2188 24.4688C46.2188 23.7477 45.9323 23.0562 45.4224 22.5463C44.9126 22.0364 44.2211 21.75 43.5 21.75C42.7789 21.75 42.0874 22.0364 41.5776 22.5463C41.0677 23.0562 40.7812 23.7477 40.7812 24.4688V55.9682L29.1124 44.2939C28.6019 43.7834 27.9095 43.4966 27.1875 43.4966C26.4655 43.4966 25.7731 43.7834 25.2626 44.2939C24.7521 44.8044 24.4653 45.4968 24.4653 46.2188C24.4653 46.9407 24.7521 47.6331 25.2626 48.1436L41.5751 64.4561C41.8277 64.7093 42.1277 64.9102 42.458 65.0472C42.7883 65.1843 43.1424 65.2549 43.5 65.2549C43.8576 65.2549 44.2117 65.1843 44.542 65.0472C44.8723 64.9102 45.1723 64.7093 45.4249 64.4561L61.7374 48.1436C62.2479 47.6331 62.5347 46.9407 62.5347 46.2188C62.5347 45.4968 62.2479 44.8044 61.7374 44.2939C61.2269 43.7834 60.5345 43.4966 59.8125 43.4966C59.0905 43.4966 58.3981 43.7834 57.8876 44.2939L46.2188 55.9682V24.4688Z" fill="white"/>
</svg>
