<svg width="24" height="22" viewBox="0 0 24 22" fill="none" xmlns="http://www.w3.org/2000/svg">
<path d="M4.89478 5.44434H20.217C20.5275 5.44435 20.8345 5.50941 21.1183 5.63534C21.402 5.76127 21.6563 5.94526 21.8646 6.17546C22.0729 6.40566 22.2307 6.67696 22.3278 6.97187C22.4248 7.26677 22.459 7.57874 22.4281 7.88767L21.7614 14.5543C21.7066 15.1027 21.45 15.6111 21.0414 15.9809C20.6328 16.3506 20.1014 16.5554 19.5503 16.5554H8.93922C8.4253 16.5556 7.9272 16.3777 7.52971 16.052C7.13223 15.7262 6.85995 15.2727 6.75922 14.7688L4.89478 5.44434Z" stroke="#6B6B6B" stroke-width="2" stroke-linejoin="round"/>
<path d="M17.1163 21H19.3386M4.89412 5.44444L3.99412 1.84111C3.93393 1.60084 3.79518 1.38757 3.59991 1.23517C3.40464 1.08278 3.16405 1.00001 2.91635 1H1.56079L4.89412 5.44444ZM8.22746 21H10.4497H8.22746Z" stroke="#6B6B6B" stroke-width="2" stroke-linecap="round" stroke-linejoin="round"/>
</svg>
