<svg width="95" height="58" viewBox="0 0 95 58" fill="none" xmlns="http://www.w3.org/2000/svg">
<path d="M94.1094 32.0875L92.6251 30.0272L92.625 18.5648C92.625 16.8014 90.7695 15.6718 89.1931 16.4704C87.5781 17.2682 86.2986 18.4743 85.2773 19.8845L75.5176 6.38852C72.8234 2.68352 68.5484 0.5 63.9766 0.5H16.625C9.40648 0.5 3.5625 6.34844 3.5625 13.5625V26.3845C1.41016 28.1242 0 30.7664 0 33.75V38.5H1.1875C6.43922 38.5 10.6875 34.2517 10.6875 29V13.5625C10.6875 11.0569 12.2461 8.94312 14.4548 8.07031C14.3242 8.67891 14.25 9.33203 14.25 10V55.125C14.25 56.4424 15.3078 57.5 16.625 57.5H25.9914C27.3088 57.5 28.3664 56.4424 28.3664 55.125V38.5C29.7582 39.8916 31.3723 40.9492 33.1164 41.7478V45.625C33.1164 46.9424 34.193 48 35.4914 48C36.8089 48 37.7328 46.9424 37.7328 45.625V43.0645C39.0875 43.2129 39.6447 43.3984 42.4828 43.0459V45.625C42.4828 46.9424 43.559 48 44.8578 48C46.1753 48 47.2328 46.9424 47.2328 45.625V41.7478C49.2516 40.9492 50.8547 39.8656 52.25 38.5L52.2499 55.125C52.2499 56.4424 53.3075 57.5 54.4913 57.5H63.9913C65.2901 57.5 66.3663 56.4424 66.3663 55.125V29L70.9827 33.75V39.9176C70.9827 41.7909 71.5396 43.6211 72.5784 45.1797L78.7014 54.3828C80.275 56.3273 82.457 57.5 84.8172 57.5C88.157 57.5 91.0338 55.1428 91.6824 51.8594L94.9109 35.7391C95.1633 34.4625 94.8664 33.1414 94.1094 32.0875ZM56.0055 15.8484L52.6092 19.2254C49.3555 22.4391 44.9617 24.25 40.3898 24.25C35.818 24.25 31.3945 22.4391 28.1438 19.218L24.7594 15.8484C22.4141 13.5328 24.4031 10 28.0398 10H52.7102C56.3469 10 58.3359 13.5328 56.0055 15.8484ZM85.5 43.25C84.1826 43.25 83.125 42.1924 83.125 40.875C83.125 39.5576 84.1826 38.5 85.5 38.5C86.8174 38.5 87.875 39.5576 87.875 40.875C87.875 42.1924 86.8211 43.25 85.5 43.25Z" fill="black"/>
</svg>
