<svg width="92" height="93" viewBox="0 0 92 93" fill="none" xmlns="http://www.w3.org/2000/svg">
<path fill-rule="evenodd" clip-rule="evenodd" d="M41.4967 0.115161C32.6266 1.0973 24.6827 4.3386 17.5484 9.88597C13.9731 12.6662 9.4656 17.7609 6.7508 22.0901C3.57505 27.1552 1.14204 34.0841 0.235251 40.6473C-0.0784171 42.9175 -0.0784171 50.0128 0.235251 52.2831C0.950278 57.4576 2.38663 62.2411 4.57529 66.7369C7.02738 71.774 9.47983 75.2391 13.3991 79.2044C17.1849 83.0349 20.3927 85.4333 24.8386 87.7572C34.5087 92.8121 45.2539 94.2449 55.9917 91.9112C60.3654 90.9607 66.5662 88.3966 70.3066 85.992C76.1014 82.2666 81.4556 76.8605 85.1452 71.0095C86.6107 68.6854 88.7844 63.9891 89.7318 61.1008C91.4197 55.9542 92 52.2096 92 46.4652C92 40.7207 91.4197 36.9762 89.7318 31.8295C88.7844 28.9413 86.6107 24.2449 85.1452 21.9209C81.4089 15.9959 76.0677 10.627 70.139 6.83684C65.2671 3.72245 58.6332 1.29983 52.3904 0.355332C50.2137 0.0260743 43.6155 -0.119373 41.4967 0.115161ZM51.9403 5.83726C60.6107 7.16501 68.5465 11.2101 74.7306 17.454C80.9476 23.7315 84.8884 31.6559 86.2679 40.6538C86.7091 43.532 86.7091 49.3983 86.2679 52.2765C84.8856 61.2928 80.969 69.1595 74.7218 75.4674C68.4279 81.8224 60.7338 85.7186 51.6776 87.1369C48.9061 87.5709 43.0549 87.565 40.2427 87.1256C31.3613 85.7375 23.5927 81.8106 17.3539 75.5558C11.0799 69.2655 7.11633 61.3288 5.72859 52.2765C5.28942 49.4114 5.2878 43.54 5.72553 40.6473C7.0778 31.7091 11.0458 23.7346 17.2659 17.454C24.127 10.5265 32.9511 6.41341 42.9372 5.48818C44.546 5.3391 50.0911 5.55418 51.9403 5.83726ZM44.8284 11.2881C44.5316 11.4501 43.8719 11.9075 43.3623 12.3044C38.1261 16.3833 34.3482 21.4542 33.0006 26.2125C32.4181 28.2686 32.4181 31.936 33.0006 33.9921C33.846 36.9771 35.7234 40.2251 38.3045 43.1688C39.5621 44.6027 41.9965 46.9051 42.8922 47.5073C43.2789 47.7673 43.2973 47.8905 43.2973 50.237V52.6941L41.3526 50.7971C37.6913 47.2255 33.8077 45.1494 28.9251 44.1535C27.6762 43.8987 26.4201 43.834 22.6802 43.8318C18.1235 43.8289 17.9836 43.8398 17.4355 44.2344C16.2984 45.0534 16.2358 45.4245 16.3402 50.7184C16.4614 56.8581 16.864 58.7708 18.9091 62.9238C21.2373 67.6513 25.2967 71.6838 30.0627 74.0035C33.4996 75.6761 35.9499 76.2578 40.1912 76.407L43.2973 76.5165V78.1444C43.2973 80.773 44.0705 81.8271 45.9982 81.8271C47.926 81.8271 48.6992 80.773 48.6992 78.1444V76.5165L51.8052 76.407C56.2072 76.2521 58.615 75.6592 62.2939 73.8246C66.9539 71.5007 70.9723 67.3758 73.2723 62.5553C75.1489 58.6222 75.5385 56.6878 75.6563 50.7184C75.7607 45.4245 75.6981 45.0534 74.561 44.2344C74.0129 43.8398 73.873 43.8289 69.3163 43.8318C65.5764 43.834 64.3203 43.8987 63.0714 44.1535C58.1904 45.149 54.3283 47.2159 50.6384 50.807L48.6992 52.6941V50.2533V47.8126L49.6346 47.0933C50.149 46.6979 51.352 45.5852 52.308 44.6207C59.2515 37.6141 61.1687 30.4139 57.9589 23.399C56.2043 19.565 52.2298 14.9165 48.1867 11.9701C46.8638 11.0059 45.7571 10.7812 44.8284 11.2881ZM47.7886 18.7686C49.8309 20.7098 51.5155 22.8635 52.5525 24.8585C53.7359 27.1357 54.0024 28.0993 54.0025 30.1023C54.0027 32.2371 53.4422 34.0652 52.1299 36.2087C51.1945 37.7367 49.1573 40.2836 48.8706 40.2836C48.766 40.2836 48.6992 38.1859 48.6992 34.9023C48.6992 28.9478 48.6529 28.6647 47.5516 27.8715C46.7659 27.3057 45.2306 27.3057 44.4448 27.8715C43.343 28.6651 43.2973 28.9464 43.2973 34.9173C43.2973 39.1519 43.2489 40.2984 43.0722 40.242C42.9485 40.2024 42.294 39.4797 41.6177 38.6361C36.7603 32.5749 36.7301 27.66 41.5134 21.6563C42.5272 20.3838 45.7422 17.1938 46.0107 17.1938C46.0773 17.1938 46.8773 17.9025 47.7886 18.7686ZM26.8216 49.3812C35.3791 50.6146 41.944 57.1985 43.085 65.6915C43.1689 66.3166 43.1949 66.8278 43.1426 66.8278C43.0904 66.8278 41.5828 65.3625 39.7924 63.5713C36.306 60.0836 36.0269 59.9027 34.5616 60.1803C33.7365 60.3365 32.7269 61.3559 32.5723 62.189C32.2973 63.6685 32.4765 63.9503 35.9306 67.4705C37.7046 69.2783 39.1559 70.8006 39.1559 70.8533C39.1559 70.906 38.6495 70.8798 38.0305 70.7951C32.345 70.0164 27.2667 66.5915 24.3321 61.5565C22.5028 58.4184 21.7008 55.2544 21.6934 51.1468L21.6898 49.1923L23.6255 49.1959C24.69 49.1979 26.1284 49.2812 26.8216 49.3812ZM70.2533 51.9649C70.1021 55.9587 69.3903 58.5955 67.6644 61.5565C64.7251 66.5993 59.6603 70.0151 53.966 70.7951C53.3471 70.8798 52.8406 70.906 52.8406 70.8533C52.8406 70.8006 54.2919 69.2783 56.0659 67.4705C59.52 63.9503 59.6992 63.6685 59.4242 62.189C59.2695 61.3559 58.2599 60.3365 57.4349 60.1803C55.9696 59.9027 55.6905 60.0836 52.2041 63.5713C50.4137 65.3625 48.9061 66.8278 48.8539 66.8278C48.8016 66.8278 48.8276 66.3166 48.9115 65.6915C49.7461 59.4802 53.639 54.0266 59.2328 51.2329C61.3138 50.1937 62.8546 49.7303 65.625 49.3101C65.8726 49.2725 67.0389 49.2307 68.2168 49.217L70.3583 49.1923L70.2533 51.9649Z" fill="black"/>
</svg>
