<svg width="20" height="20" viewBox="0 0 20 20" fill="none" xmlns="http://www.w3.org/2000/svg">
<path d="M18.7488 16.3216C18.2725 15.1989 17.5813 14.1792 16.7137 13.3191C15.8488 12.4566 14.8242 11.7689 13.6965 11.294C13.6864 11.2889 13.6763 11.2864 13.6662 11.2814C15.2392 10.1508 16.2618 8.30904 16.2618 6.23116C16.2618 2.78894 13.4591 0 10 0C6.54091 0 3.73828 2.78894 3.73828 6.23116C3.73828 8.30904 4.76086 10.1508 6.33387 11.2839C6.32377 11.2889 6.31367 11.2915 6.30357 11.2965C5.17242 11.7714 4.15741 12.4523 3.28632 13.3216C2.41955 14.1823 1.72847 15.2019 1.25126 16.3241C0.782438 17.4227 0.529594 18.6006 0.506411 19.794C0.505737 19.8208 0.510464 19.8475 0.520312 19.8724C0.530161 19.8974 0.544933 19.9202 0.563757 19.9394C0.582581 19.9586 0.605077 19.9738 0.629919 19.9842C0.654761 19.9946 0.681446 20 0.708402 20H2.22334C2.33444 20 2.42281 19.9121 2.42533 19.804C2.47583 17.8643 3.25855 16.0477 4.64219 14.6709C6.07381 13.2462 7.97505 12.4623 10 12.4623C12.025 12.4623 13.9262 13.2462 15.3578 14.6709C16.7415 16.0477 17.5242 17.8643 17.5747 19.804C17.5772 19.9146 17.6656 20 17.7767 20H19.2916C19.3186 20 19.3453 19.9946 19.3701 19.9842C19.395 19.9738 19.4175 19.9586 19.4363 19.9394C19.4551 19.9202 19.4699 19.8974 19.4797 19.8724C19.4896 19.8475 19.4943 19.8208 19.4936 19.794C19.4684 18.593 19.2184 17.4246 18.7488 16.3216ZM10 10.5528C8.84109 10.5528 7.75034 10.103 6.92975 9.28643C6.10915 8.46985 5.6572 7.38442 5.6572 6.23116C5.6572 5.07789 6.10915 3.99246 6.92975 3.17588C7.75034 2.3593 8.84109 1.90955 10 1.90955C11.1589 1.90955 12.2497 2.3593 13.0703 3.17588C13.8909 3.99246 14.3428 5.07789 14.3428 6.23116C14.3428 7.38442 13.8909 8.46985 13.0703 9.28643C12.2497 10.103 11.1589 10.5528 10 10.5528Z" fill="#6B6B6B"/>
</svg>
